<html>
<head>
<meta charset="UTF-8">
<meta name="viewport" content="width=device-width, initial-scale=1.0"/>

<style>
.comment
{
    padding-left: 20px;
    margin-top: 4px;
    margin-right: 4px;
    margin-bottom: 4px;
    border: 2px #000 solid;
}
.submission
{
    border: 4px #00f solid;
    padding-left: 20px;
}
.hidden
{
    display: none;
}
</style>
</head>
<body><div class="submission" id="t3_6ef5xl">
    <p class="userinfo">
        <a href="https://www.reddit.com/u/V2atX">V2atX</a>
        <span class="score"> | 26 points</span>
        <span class="timestamp"> | May 31 2017 14:05:53</span>
    </p>
    <strong>[TV] The Young Pope S01 [1080p] BluRay FLAC [x264] [14.87GB]</strong>
    <p><p><a href="http://www.imdb.com/title/tt3655448/">The Young Pope</a></p>
<p>Video: AVC H.264 @ 2239 - 3457 kb/s (2749 kb/s average) (CRF20, Film Preset, Ultralight Denoise)<br>
Audio: FLAC 5.1 @ 1078 - 1227 kb/s (1147 kb/s average) (DTS-HD MA source was 24-bit, I reduced it to 16-bit for a better filesize)<br>
Subs: UTF-8, non HI</p>
<p>Link protected by captcha: http://links.snahp.it/842JudePope</p>
<p><a href="https://www.reddit.com/r/megalinks/comments/6qcb8t/tv_the_young_pope_s01_1080p_bluray_flac_x264/">Reupped here.</a></p>
<p>Complete MediaInfo of a relatively average sized episode:</p>
<pre><code>General
Unique ID                                : 253062120407914808065681035960188677513 (0xBE61FDD61D3B0441A841B104C9B42D89)
Complete name                            : The Young Pope - S01E03 - Episode 3.mkv
Format                                   : Matroska
Format version                           : Version 4 / Version 2
File size                                : 1.45 GiB
Duration                                 : 56 min 29 s
Overall bit rate mode                    : Variable
Overall bit rate                         : 3 679 kb/s
Encoded date                             : UTC 2017-04-29 20:32:34
Writing application                      : mkvmerge v10.0.0 ('To Drown In You') 64bit
Writing library                          : libebml v1.3.4 + libmatroska v1.4.5

Video
ID                                       : 1
Format                                   : AVC
Format/Info                              : Advanced Video Codec
Format profile                           : High@L4.1
Format settings, CABAC                   : Yes
Format settings, ReFrames                : 4 frames
Codec ID                                 : V_MPEG4/ISO/AVC
Duration                                 : 56 min 29 s
Bit rate                                 : 2 450 kb/s
Width                                    : 1 920 pixels
Height                                   : 1 080 pixels
Display aspect ratio                     : 16:9
Frame rate mode                          : Constant
Frame rate                               : 25.000 FPS
Color space                              : YUV
Chroma subsampling                       : 4:2:0
Bit depth                                : 8 bits
Scan type                                : Progressive
Bits/(Pixel*Frame)                       : 0.047
Stream size                              : 990 MiB (67%)
Writing library                          : x264 core 142 r2479 dd79a61
Encoding settings                        : cabac=1 / ref=4 / deblock=1:-1:-1 / analyse=0x3:0x133 / me=umh / subme=10 / psy=1 / psy_rd=1.00:0.15 / mixed_ref=1 / me_range=24 / chroma_me=1 / trellis=2 / 8x8dct=1 / cqm=0 / deadzone=21,11 / fast_pskip=1 / chroma_qp_offset=-3 / threads=12 / lookahead_threads=2 / sliced_threads=0 / nr=0 / decimate=1 / interlaced=0 / bluray_compat=0 / constrained_intra=0 / bframes=8 / b_pyramid=2 / b_adapt=2 / b_bias=0 / direct=3 / weightb=1 / open_gop=0 / weightp=2 / keyint=250 / keyint_min=25 / scenecut=40 / intra_refresh=0 / rc_lookahead=60 / rc=crf / mbtree=1 / crf=20.0 / qcomp=0.60 / qpmin=0 / qpmax=69 / qpstep=4 / vbv_maxrate=62500 / vbv_bufsize=78125 / crf_max=0.0 / nal_hrd=none / filler=0 / ip_ratio=1.40 / aq=1:1.00
Default                                  : Yes
Forced                                   : No
Color range                              : Limited
Color primaries                          : BT.709
Transfer characteristics                 : BT.709
Matrix coefficients                      : BT.709

Audio
ID                                       : 2
Format                                   : FLAC
Format/Info                              : Free Lossless Audio Codec
Codec ID                                 : A_FLAC
Duration                                 : 56 min 29 s
Bit rate mode                            : Variable
Bit rate                                 : 1 227 kb/s
Channel(s)                               : 6 channels
Channel positions                        : Front: L C R, Side: L R, LFE
Sampling rate                            : 48.0 kHz
Frame rate                               : 11.719 FPS (4096 spf)
Bit depth                                : 16 bits
Delay relative to video                  : -115 ms
Stream size                              : 496 MiB (33%)
Writing library                          : libFLAC 1.2.1 (UTC 2007-09-17)
Language                                 : English
Default                                  : Yes
Forced                                   : No

Text
ID                                       : 3
Format                                   : UTF-8
Codec ID                                 : S_TEXT/UTF8
Codec ID/Info                            : UTF-8 Plain Text
Duration                                 : 54 min 48 s
Bit rate                                 : 62 b/s
Count of elements                        : 727
Stream size                              : 25.3 KiB (0%)
Language                                 : English
Default                                  : Yes
Forced                                   : No

Menu
00:00:00.000                             : :Chapter 1
00:15:03.830                             : :Chapter 2
00:28:06.550                             : :Chapter 3
00:40:43.670                             : :Chapter 4
</code></pre></p>
    <p class="toolbar">
        <a href="https://www.reddit.com/r/megalinks/comments/6ef5xl">permalink</a>
    </p>
</div>
<div class="comment" id="t1_diammya">
    <p class="userinfo">
        <a
        class="toggle_hide_button"
        href="javascript:void(0)"
        onclick="toggle_collapse(this.parentElement.parentElement)">[-]
        </a>
        <a href="https://www.reddit.com/u/whiplash_14">whiplash_14</a>
        <span class="score"> | 2 points</span>
        <span class="timestamp"> | May 31 2017 23:43:20</span>
    </p>
    <div class="collapsible">
        <p>x265 version?</p>
        <p class="toolbar">
            <a href="https://www.reddit.com/r/megalinks/comments/6ef5xl/_/diammya">permalink</a>
        </p>
        <div class="comment" id="t1_diamxp5">
    <p class="userinfo">
        <a
        class="toggle_hide_button"
        href="javascript:void(0)"
        onclick="toggle_collapse(this.parentElement.parentElement)">[-]
        </a>
        <a href="https://www.reddit.com/u/V2atX">V2atX</a>
        <span class="score"> | 2 points</span>
        <span class="timestamp"> | May 31 2017 23:50:03</span>
    </p>
    <div class="collapsible">
        <p>Try the Weekly Request Thread. I only do x264.</p>
        <p class="toolbar">
            <a href="https://www.reddit.com/r/megalinks/comments/6ef5xl/_/diamxp5">permalink</a>
        </p>
        
    </div>
</div>
    </div>
</div>

<div class="comment" id="t1_dkutddw">
    <p class="userinfo">
        <a
        class="toggle_hide_button"
        href="javascript:void(0)"
        onclick="toggle_collapse(this.parentElement.parentElement)">[-]
        </a>
        <a href="https://www.reddit.com/u/JackYeats">JackYeats</a>
        <span class="score"> | 1 points</span>
        <span class="timestamp"> | Jul 28 2017 19:19:45</span>
    </p>
    <div class="collapsible">
        <p>The folder is down, could you please reupload? Thanks!!</p>
        <p class="toolbar">
            <a href="https://www.reddit.com/r/megalinks/comments/6ef5xl/_/dkutddw">permalink</a>
        </p>
        <div class="comment" id="t1_dkuxz41">
    <p class="userinfo">
        <a
        class="toggle_hide_button"
        href="javascript:void(0)"
        onclick="toggle_collapse(this.parentElement.parentElement)">[-]
        </a>
        <a href="https://www.reddit.com/u/V2atX">V2atX</a>
        <span class="score"> | 1 points</span>
        <span class="timestamp"> | Jul 28 2017 20:45:33</span>
    </p>
    <div class="collapsible">
        <p>Will PM you when it's up again.</p>
        <p class="toolbar">
            <a href="https://www.reddit.com/r/megalinks/comments/6ef5xl/_/dkuxz41">permalink</a>
        </p>
        <div class="comment" id="t1_dkvquuy">
    <p class="userinfo">
        <a
        class="toggle_hide_button"
        href="javascript:void(0)"
        onclick="toggle_collapse(this.parentElement.parentElement)">[-]
        </a>
        <a href="https://www.reddit.com/u/JackYeats">JackYeats</a>
        <span class="score"> | 1 points</span>
        <span class="timestamp"> | Jul 29 2017 10:45:02</span>
    </p>
    <div class="collapsible">
        <p>Thanks!</p>
        <p class="toolbar">
            <a href="https://www.reddit.com/r/megalinks/comments/6ef5xl/_/dkvquuy">permalink</a>
        </p>
        
    </div>
</div>
    </div>
</div>
    </div>
</div>
</body>

<script>
function toggle_collapse(comment_div)
{
    var button = comment_div.getElementsByClassName("toggle_hide_button")[0];
    var collapsible = comment_div.getElementsByClassName("collapsible")[0];
    if (collapsible.classList.contains("hidden"))
    {
        collapsible.classList.remove("hidden");
        button.innerText = "[-]";
    }
    else
    {
        collapsible.classList.add("hidden");
        button.innerText = "[+]";
    }
}
</script>
</html>
